# xmcd
#
# Track frame offsets:
#	150
#	17320
#	31153
#	42788
#	62270
#	78199
#	91355
#	109902
#	126673
#	146778
#	161637
#
# Disc length: 2484 seconds
# Revision: 0
# Processed by: cddbd v1.5.2PL0 Copyright (c) Steve Scherf et al.
# Submitted via: dBpowerAMP V12.0
#
DISCID=8509b20b
DTITLE=Lorenzo Menzerschmidt - Lorenzo Menzerschmidt
DYEAR=2012
DGENRE=Blues
TTITLE0=I'm A Mess
TTITLE1=Highway 29
TTITLE2=It Don't Work That Way
TTITLE3=Johnny Be Good
TTITLE4=It Takes A Lot To Laugh It Takes A Train To Cry
TTITLE5=Check The Gage
TTITLE6=Payday
TTITLE7=Goin Down To Brownsville
TTITLE8=Shades Of Blue
TTITLE9=Police Dog Blues
TTITLE10=Since My Baby Left This Town
EXTD=
EXTT0=
EXTT1=
EXTT2=
EXTT3=
EXTT4=
EXTT5=
EXTT6=
EXTT7=
EXTT8=
EXTT9=
EXTT10=
PLAYORDER=
